# xmcd
#
# Track frame offsets: 
#        150
#        19088
#        41325
#        62470
#        82506
#        101634
#        122002
#        142524
#        163160
#        175480
#        198272
#        218708
#        234621
#        256771
#        288362
#
# Disc length: 4123 seconds
#
# Revision: 2
# Processed by: cddbd v1.5.2PL0 Copyright (c) Steve Scherf et al.
# Submitted via: ExactAudioCopy v1.1
#
DISCID=bc10190f
DTITLE=Various Artist - Ruf Records - 20 Years Anniversary Guys With 
DTITLE=Guitars [CD 2)
DYEAR=2014
DGENRE=Blues
TTITLE0=Thorbjørn Risager - If You Wanna Leave
TTITLE1=Royal Southern Brotherhood - Rock And Roll
TTITLE2=Walter Trout - Livin' Every Day
TTITLE3=Oli Brown - Speechless
TTITLE4=Laurence Jones - Temptation
TTITLE5=Mike Zito - Voices In Dallas
TTITLE6=Bart Walker - Waitin' On Daylight
TTITLE7=Spin Doctors - Some Other Man Instead
TTITLE8=Aynsley Lister and Eria Lyytinen and Ian Parker - Blues Caravan
TTITLE9=Jeff Healey - I'm Torn Down
TTITLE10=Cyril Neville - Swamp Funk
TTITLE11=Devon Allman - Homesick
TTITLE12=Kim Simmonds and Savoy Brown - Nuthin' Like The Blues
TTITLE13=Albert Castiglia - Bad Avenue
TTITLE14=Luther Allison - You Can't Always Get What You Want
EXTD=
EXTT0=
EXTT1=
EXTT2=
EXTT3=
EXTT4=
EXTT5=
EXTT6=
EXTT7=
EXTT8=
EXTT9=
EXTT10=
EXTT11=
EXTT12=
EXTT13=
EXTT14=
PLAYORDER=
